# AST/ASF file generated using VICON BodyLanguage
# -----------------------------------------------
:version 1.10
:name VICON
:units
  mass 1.0
  length 0.45
  angle deg
:documentation
   .ast/.asf automatically generated from VICON data using
   VICON BodyBuilder and BodyLanguage model FoxedUp or BRILLIANT.MOD
:root
   order TX TY TZ RX RY RZ
   axis XYZ
   position 0 0 0  
   orientation 0 0 0 
:bonedata
  begin
     id 1 
     name lhipjoint
     direction 0.693937 -0.600361 0.397515 
     length 2.37164 
     axis 0 0 0  XYZ
  end
  begin
     id 2 
     name lfemur
     direction 0.34202 -0.939693 0  
     length 6.18497  
     axis 0 0 20  XYZ
    dof rx ry rz
    limits (-160.0 20.0)
           (-70.0 70.0)
           (-60.0 70.0)
  end
  begin
     id 3 
     name ltibia
     direction 0.34202 -0.939693 0   
     length 6.91601   
     axis 0 0 20   XYZ
    dof rx
    limits (-10.0 170.0)
  end
  begin
     id 4 
     name lfoot
     direction 0.0978718 -0.2689 0.958182   
     length 1.81453   
     axis -90 7.62852e-016 20   XYZ
    dof rx rz
    limits (-45.0 90.0)
           (-70.0 20.0)
  end
  begin
     id 5 
     name ltoes
     direction 1.53569e-011 -4.21951e-011 1   
     length 0.912052   
     axis -90 7.62852e-016 20   XYZ
    dof rx
    limits (-90.0 20.0)
  end
  begin
     id 6 
     name rhipjoint
     direction -0.643996 -0.637876 0.422354   
     length 2.23216  
     axis 0 0 0  XYZ 
  end
  begin
     id 7 
     name rfemur
     direction -0.34202 -0.939693 0   
     length 6.15404   
     axis 0 0 -20   XYZ
    dof rx ry rz
    limits (-160.0 20.0)
           (-70.0 70.0)
           (-70.0 60.0)
  end
  begin
     id 8 
     name rtibia
     direction -0.34202 -0.939693 0   
     length 6.86744   
     axis 0 0 -20   XYZ
    dof rx
    limits (-10.0 170.0)
 end
 begin
     id 9 
     name rfoot
     direction -0.118701 -0.326127 0.937844   
     length 1.9243  
     axis -90 -7.62852e-016 -20   XYZ
    dof rx rz
    limits (-45.0 90.0)
           (-20.0 70.0)
  end
  begin
     id 10 
     name rtoes
     direction -1.5356e-011 -4.2181e-011 1   
     length 0.958865   
     axis -90 -7.62852e-016 -20   XYZ
    dof rx
    limits (-90.0 20.0)
  end
  begin
     id 11 
     name lowerback
     direction 0.0310826 0.968686 -0.246334   
     length 2.00021   
     axis 0 0 0   XYZ
    dof rx ry rz
    limits (-20.0 45.0)
           (-30.0 30.0)
           (-30.0 30.0)
  end
  begin
     id 12 
     name upperback
     direction -0.0152834 0.999474 -0.0286152   
     length 2.03728   
     axis 0 0 0   XYZ
    dof rx ry rz
    limits (-20.0 45.0)
           (-30.0 30.0)
           (-30.0 30.0)
  end
  begin
     id 13 
     name thorax
     direction -0.0323701 0.996236 0.0804149   
     length 2.16   
     axis 0 0 0   XYZ
    dof rx ry rz
    limits (-20.0 45.0)
           (-30.0 30.0)
           (-30.0 30.0)
  end
  begin
     id 14 
     name lowerneck
     direction 0.0307935 0.982251 0.185027   
     length 1.43558   
     axis 0 0 0   XYZ
    dof rx ry rz
    limits (-20.0 45.0)
           (-30.0 30.0)
           (-30.0 30.0)
  end
  begin
     id 15 
     name upperneck
     direction -0.0927153 0.994775 0.0427454   
     length 1.44603   
     axis 0 0 0   XYZ
    dof rx ry rz
    limits (-20.0 45.0)
           (-30.0 30.0)
           (-30.0 30.0)
  end
  begin
     id 16
     name head
     direction -0.0341265 0.999406 -0.00472033  
     length 1.45931  
     axis 0 0 0   XYZ
    dof rx ry rz
    limits (-20.0 45.0)
           (-30.0 30.0)
           (-30.0 30.0)
  end
  begin
     id 17 
     name lclavicle
     direction 0.820755 0.555306 -0.134151  
     length 2.66075  
     axis 0 0 0   XYZ
    dof ry rz
    limits (-20.0 10.0)
           (0.0 20.0)
  end
  begin
     id 18 
     name lhumerus
     direction 1 -4.48971e-011 5.24853e-027   
     length 5.0546   
     axis -180 -30 -90   XYZ
    dof rx ry rz
    limits (-60.0 90.0)
           (-90.0 90.0)
           (-90.0 90.0)
  end
  begin
     id 19
     name lradius
     direction 1 -4.48971e-011 2.76575e-028   
     length 3.39013   
     axis -180 -30 -90   XYZ
    dof rx
    limits (-10.0 170.0)
  end
  begin
     id 20
     name lwrist
     direction 1 -4.48939e-011 -2.27826e-027   
     length 1.69507   
     axis 2.17013e-015 90 90   XYZ
    dof ry
    limits (-180.0 0.0)
 end
  begin
     id 21 
     name lhand
     direction 1 -4.49009e-011 -4.55652e-027   
     length 0.572425   
     axis 2.90745e-015 90 90   XYZ
    dof rx rz
    limits (-90.0 90.0)
           (-45.0 45.0)
  end
  begin
     id 22 
     name lfingers
     direction 1 -4.48955e-011 -9.11303e-027   
     length 0.461504   
     axis 5.81489e-015 90 90   XYZ
    dof rx
    limits (0.0 90.0)
  end
  begin
     id 23
     name lthumb
     direction 0.707107 -6.34929e-011 0.707107   
     length 0.66263   
     axis -90 45 2.85299e-015   XYZ
    dof rx rz
    limits (-45.0 45.0)
           (-45.0 45.0)
  end
  begin
     id 24 
     name rclavicle
     direction -0.754477 0.632921 -0.173712   
     length 2.73081  
     axis 0 0 0   XYZ 
    dof ry rz
    limits (-10.0 20.0)
           (-20.0 0.0)
  end
  begin
     id 25 
     name rhumerus
     direction -1 -4.48969e-011 5.1496e-027  
     length 5.0701   
     axis -180 30 90   XYZ
    dof rx ry rz
    limits (-90.0 60.0)
           (-90.0 90.0)
           (-90.0 90.0)
  end
  begin
     id 26 
     name rradius
     direction -1 -4.48967e-011 -7.15624e-028   
     length 3.14957   
     axis -180 30 90   XYZ
    dof rx
    limits (-10.0 170.0)
  end
  begin
     id 27 
     name rwrist
     direction -1 -4.48938e-011 -2.27826e-027   
     length 1.57479   
     axis 2.17013e-015 -90 -90   XYZ
    dof ry
    limits (-180.0 0.0)
  end
  begin
     id 28
     name rhand
     direction -1 -4.49008e-011 -4.55652e-027   
     length 0.718191   
     axis 2.90745e-015 -90 -90   XYZ
    dof rx rz
    limits (-90.0 90.0)
           (-45.0 45.0)
  end
  begin
     id 29
     name rfingers
     direction -1 -4.48953e-011 -9.11303e-027   
     length 0.579024   
     axis 5.81489e-015 -90 -90   XYZ
    dof rx
    limits (0.0 90.0)
  end
  begin
     id 30
     name rthumb
     direction -0.707107 -6.34937e-011 0.707107   
     length 0.831366   
     axis -90 -45 -2.85299e-015   XYZ
    dof rx rz
    limits (-45.0 45.0)
           (-45.0 45.0)
  end
:hierarchy
  begin
    root lhipjoint rhipjoint lowerback
    lhipjoint lfemur
    lfemur ltibia
    ltibia lfoot
    lfoot ltoes
    rhipjoint rfemur
    rfemur rtibia
    rtibia rfoot
    rfoot rtoes
    lowerback upperback
    upperback thorax
    thorax lowerneck lclavicle rclavicle
    lowerneck upperneck
    upperneck head
    lclavicle lhumerus
    lhumerus lradius
    lradius lwrist
    lwrist lhand lthumb
    lhand lfingers
    rclavicle rhumerus
    rhumerus rradius
    rradius rwrist
    rwrist rhand rthumb
    rhand rfingers
  end

#!OML:ASF H:\Male1\Project 1\Capture day 1\Session 1\Male1.ASF
:FULLY-SPECIFIED
:DEGREES
95
root 7.91884 14.2681 1.96911 177.042 4.36384 -179.945
lowerback 16.6708 0.128823 -0.548533
upperback 6.40215 1.02119 -0.503591
thorax -2.52034 0.910358 -0.424285
lowerneck -5.52751 6.69797 9.51314
upperneck -1.57253 8.5316 -7.83716
head 1.30053 4.20948 -3.97754
rclavicle 1.2424e-014 2.38542e-015
rhumerus -24.8976 6.67715 -90.0435
rradius 36.9095
rwrist -17.3707
rhand -25.6342 -2.33404
rfingers 7.12502
rthumb 0.899025 -32.3119
lclavicle 1.2424e-014 2.38542e-015
lhumerus -24.1357 -17.6976 90.2133
lradius 45.6026
lwrist 14.1135
lhand -26.1267 13.1832
lfingers 7.12502
lthumb 0.423345 43.1625
rfemur -23.051 8.88169 23.1143
rtibia 58.735
rfoot -28.2324 -25.2098
rtoes -32.1388
lfemur -19.1949 -4.65296 -20.7154
ltibia 55.1046
lfoot -30.9102 14.5649
ltoes -15.063
96
root 7.92923 14.2011 1.91147 176.794 4.62098 -180.059
lowerback 16.7116 0.212405 -0.633447
upperback 6.35316 1.10712 -0.555367
thorax -2.59332 0.949185 -0.44806
lowerneck -5.43047 6.73293 9.56872
upperneck -1.8054 8.58442 -7.96773
head 1.22174 4.23887 -4.03758
rclavicle -2.98177e-015 -4.57205e-015
rhumerus -25.291 7.65768 -89.6807
rradius 38.2
rwrist -17.9201
rhand -25.1242 -2.42428
rfingers 7.12502
rthumb 1.39164 -32.3995
lclavicle -2.98177e-015 -4.57205e-015
lhumerus -24.7738 -18.0394 89.4322
lradius 47.2894
lwrist 14.5975
lhand -26.2796 14.251
lfingers 7.12502
lthumb 0.275728 44.2306
rfemur -23.1237 8.93919 23.2216
rtibia 59.7457
rfoot -28.7911 -25.3142
rtoes -31.276
lfemur -19.1062 -4.32187 -20.8345
ltibia 55.9996
lfoot -31.5681 14.3311
ltoes -13.9296
97
root 7.94046 14.1743 1.8443 176.646 4.88822 -180.15
lowerback 16.5676 0.287489 -0.602714
upperback 6.24268 1.18095 -0.644485
thorax -2.632 0.975783 -0.571097
lowerneck -5.39977 6.79351 9.63935
upperneck -1.9207 8.66533 -8.06113
head 1.1951 4.28043 -4.08225
rclavicle 1.88845e-014 -1.59028e-015
rhumerus -25.9703 8.69195 -89.4053
rradius 39.6085
rwrist -18.6348
rhand -24.8131 -2.49605
rfingers 7.12502
rthumb 1.69212 -32.4691
lclavicle 1.88845e-014 -1.59028e-015
lhumerus -25.7361 -18.1687 88.5967
lradius 49.2135
lwrist 15.5242
lhand -26.3563 15.4259
lfingers 7.12502
lthumb 0.201652 45.4055
rfemur -22.8136 9.06028 23.3137
rtibia 59.9692
rfoot -29.2528 -25.3227
rtoes -30.3263
lfemur -18.7184 -3.98612 -20.9099
ltibia 56.2033
lfoot -31.9264 14.1367
ltoes -13.0933
98
root 7.95275 14.1963 1.76684 176.633 5.11938 -180.234
lowerback 16.1919 0.340253 -0.51067
upperback 6.06138 1.21422 -0.752828
thorax -2.62167 0.973977 -0.73691
lowerneck -5.40067 6.87773 9.77561
upperneck -1.90842 8.77213 -8.19297
head 1.22493 4.33231 -4.1489
rclavicle -1.3418e-014 1.23246e-014
rhumerus -26.9533 9.79649 -89.2384
rradius 41.0888
rwrist -19.6527
rhand -24.8302 -2.57066
rfingers 7.12502
rthumb 1.67557 -32.5438
lclavicle -1.3418e-014 1.23246e-014
lhumerus -26.986 -18.0276 87.759
lradius 51.2418
lwrist 16.8716
lhand -26.3746 16.6772
lfingers 7.12502
lthumb 0.183939 46.6569
rfemur -22.1208 9.18055 23.3395
rtibia 59.329
rfoot -29.4905 -25.1924
rtoes -29.4491
lfemur -18.0332 -3.70472 -20.9658
ltibia 55.6322
lfoot -31.8815 14.0307
ltoes -12.7077
99
root 7.96567 14.2728 1.67925 176.733 5.27557 -180.313
lowerback 15.6015 0.363207 -0.372362
upperback 5.81417 1.19772 -0.870567
thorax -2.56553 0.940299 -0.925364
lowerneck -5.39462 6.96682 9.91042
upperneck -1.7925 8.88521 -8.28903
head 1.28667 4.38607 -4.20106
rclavicle 1.01877e-014 1.39149e-015
rhumerus -28.2341 10.8702 -89.1949
rradius 42.5642
rwrist -21.0206
rhand -25.2415 -2.62039
rfingers 7.12502
rthumb 1.27834 -32.5963
lclavicle 1.01877e-014 1.39149e-015
lhumerus -28.4585 -17.6346 86.9636
lradius 53.2128
lwrist 18.5734
lhand -26.4155 17.9883
lfingers 7.12502
lthumb 0.144488 47.968
rfemur -21.0171 9.22382 23.2822
rtibia 57.793
rfoot -29.332 -24.9117
rtoes -28.7936
lfemur -17.0259 -3.54886 -21.0208
ltibia 54.2653
lfoot -31.3554 14.0324
ltoes -12.7391
100
root 7.97868 14.4049 1.58356 176.909 5.3315 -180.368
lowerback 14.8638 0.349718 -0.206955
upperback 5.50597 1.12437 -0.96997
thorax -2.49397 0.872767 -1.09779
lowerneck -5.42394 7.052 9.97847
upperneck -1.47791 8.9896 -8.64117
head 1.28218 4.42354 -3.88821
rclavicle -5.66536e-015 -2.98177e-015
rhumerus -29.7673 11.7838 -89.2494
rradius 43.9442
rwrist -22.6179
rhand -25.9035 -2.63991
rfingers 7.12502
rthumb 0.638981 -32.6187
lclavicle -5.66536e-015 -2.98177e-015
lhumerus -30.078 -16.9977 86.2516
lradius 54.9819
lwrist 20.4904
lhand -26.5047 19.3165
lfingers 7.12502
lthumb 0.058247 49.2962
rfemur -19.5101 9.12742 23.1661
rtibia 55.4062
rfoot -28.7013 -24.448
rtoes -28.182
lfemur -15.7121 -3.56038 -21.0614
ltibia 52.1693
lfoot -30.1707 14.109
ltoes -13.1548
101
root 7.99172 14.5894 1.48286 177.124 5.29671 -180.355
lowerback 14.0456 0.308624 0.0013589
upperback 5.15132 1.0135 -1.0336
thorax -2.42644 0.78346 -1.2509
lowerneck -5.30089 7.10408 10.0748
upperneck -1.20798 9.06429 -8.65444
head 1.35442 4.45726 -3.90181
rclavicle -4.47266e-015 -6.55989e-015
rhumerus -31.4744 12.3738 -89.3571
rradius 45.1382
rwrist -24.2306
rhand -26.5706 -2.59931
rfingers 7.12502
rthumb -0.00536536 -32.5791
lclavicle -4.47266e-015 -6.55989e-015
lhumerus -31.757 -16.1818 85.6438
lradius 56.4409
lwrist 22.4272
lhand -26.7397 20.5796
lfingers 7.12502
lthumb -0.168705 50.5593
rfemur -17.6627 8.89752 23.051
rtibia 52.2897
rfoot -27.2766 -23.8855
rtoes -27.9089
lfemur -14.1707 -3.7421 -21.0378
ltibia 49.5082
lfoot -28.1849 14.2027
ltoes -13.9003
102
root 8.00535 14.8196 1.38106 177.396 5.21206 -180.285
lowerback 13.1562 0.27008 0.231
upperback 4.76388 0.90489 -1.06912
thorax -2.35214 0.693749 -1.38782
lowerneck -5.10925 7.12879 10.1426
upperneck -0.915736 9.10804 -8.56802
head 1.41303 4.47753 -3.88489
rclavicle -1.51076e-014 1.64991e-014
rhumerus -33.2433 12.5349 -89.4684
rradius 46.0705
rwrist -25.673
rhand -27.0662 -2.50512
rfingers 7.12502
rthumb -0.484031 -32.4843
lclavicle -1.51076e-014 1.64991e-014
lhumerus -33.3902 -15.2539 85.1378
lradius 57.555
lwrist 24.1867
lhand -27.0884 21.678
lfingers 7.12502
lthumb -0.505463 51.6571
rfemur -15.6561 8.6112 22.9389
rtibia 48.6556
rfoot -24.9032 -23.2669
rtoes -28.0319
lfemur -12.5779 -4.05371 -20.9375
ltibia 46.4983
lfoot -25.2938 14.2281
ltoes -14.8358
103
root 8.01909 15.0854 1.28203 177.658 5.1183 -180.107
lowerback 12.2962 0.242643 0.531699
upperback 4.3866 0.824938 -1.06264
thorax -2.27907 0.621093 -1.52752
lowerneck -4.92716 7.14205 10.1943
upperneck -0.566006 9.13697 -8.413
head 1.48459 4.49114 -3.8443
rclavicle -8.59744e-015 5.56597e-015
rhumerus -34.9477 12.2967 -89.5339
rradius 46.6874
rwrist -26.8287
rhand -27.3231 -2.40946
rfingers 7.12502
rthumb -0.732168 -32.3879
lclavicle -8.59744e-015 5.56597e-015
lhumerus -34.9088 -14.283 84.729
lradius 58.3314
lwrist 25.6195
lhand -27.5562 22.488
lfingers 7.12502
lthumb -0.957275 52.4656
rfemur -13.5777 8.38391 22.9033
rtibia 44.7547
rfoot -21.5372 -22.6252
rtoes -28.5381
lfemur -11.0105 -4.45359 -20.6934
ltibia 43.3697
lfoot -21.5261 14.1236
ltoes -15.7229
104
root 8.03444 15.3776 1.18811 177.93 5.0498 -179.951
lowerback 11.4329 0.253863 0.763607
upperback 4.04917 0.79555 -1.05403
thorax -2.15899 0.577942 -1.63386
lowerneck -4.72011 7.12863 10.2287
upperneck -0.354778 9.12995 -7.86663
head 1.65912 4.50274 -4.10324
rclavicle -2.13694e-015 -1.13307e-014
rhumerus -36.4634 11.7746 -89.5435
rradius 46.9507
rwrist -27.6514
rhand -27.4164 -2.35793
rfingers 7.12502
rthumb -0.822248 -32.3361
lclavicle -2.13694e-015 -1.13307e-014
lhumerus -36.2418 -13.2992 84.4007
lradius 58.817
lwrist 26.5913
lhand -28.0468 22.899
lfingers 7.12502
lthumb -1.43109 52.8739
rfemur -11.6335 8.3453 22.8085
rtibia 40.8734
rfoot -17.3183 -21.977
rtoes -29.209
lfemur -9.60593 -4.91082 -20.4279
ltibia 40.3035
lfoot -17.0321 13.9224
ltoes -16.3641
105
root 8.04939 15.6846 1.10149 178.171 5.02922 -179.881
lowerback 10.6138 0.294649 0.903459
upperback 3.78514 0.807549 -1.07495
thorax -1.98318 0.562304 -1.72465
lowerneck -4.62625 7.11484 10.1537
upperneck -0.0954278 9.11754 -7.56746
head 1.70378 4.49901 -3.98399
rclavicle -1.46107e-014 -8.54774e-015
rhumerus -37.7017 11.1536 -89.5308
rradius 46.8535
rwrist -28.1643
rhand -27.4479 -2.37245
rfingers 7.12502
rthumb -0.852683 -32.3505
lclavicle -1.46107e-014 -8.54774e-015
lhumerus -37.37 -12.317 84.122
lradius 59.0652
lwrist 27.0884
lhand -28.5196 22.8541
lfingers 7.12502
lthumb -1.88771 52.8255
rfemur -9.92576 8.56129 22.5877
rtibia 37.2576
rfoot -12.5212 -21.4238
rtoes -29.8892
lfemur -8.37952 -5.44142 -20.2383
ltibia 37.4369
lfoot -12.4433 13.8449
ltoes -16.4636
106
root 8.06265 15.9926 1.02332 178.349 5.067 -179.921
lowerback 9.8824 0.339603 0.903344
upperback 3.60722 0.82578 -1.11105
thorax -1.76548 0.556624 -1.75354
lowerneck -4.57463 7.12128 10.0499
upperneck 0.0930362 9.1307 -7.30654
head 1.73569 4.50799 -3.87117
rclavicle 3.47873e-015 -5.36719e-015
rhumerus -38.5978 10.6583 -89.5144
rradius 46.4186
rwrist -28.4173
rhand -27.466 -2.45967
rfingers 7.12502
rthumb -0.870196 -32.4376
lclavicle 3.47873e-015 -5.36719e-015
lhumerus -38.3037 -11.2812 83.8908
lradius 59.1402
lwrist 27.1688
lhand -28.9479 22.4004
lfingers 7.12502
lthumb -2.30141 52.3677
rfemur -8.51725 8.99399 22.2274
rtibia 34.1127
rfoot -7.71739 -21.0947
rtoes -30.4411
lfemur -7.29889 -6.05676 -20.187
ltibia 34.8526
lfoot -8.55636 14.2156
ltoes -15.8912
107
root 8.0739 16.2888 0.953977 178.489 5.14026 -180.04
lowerback 9.22118 0.368856 0.802661
upperback 3.50223 0.826607 -1.15409
thorax -1.51143 0.547356 -1.73146
lowerneck -4.54239 7.15362 9.92732
upperneck 0.205014 9.17843 -7.09328
head 1.75068 4.53392 -3.7702
rclavicle -3.62782e-015 1.0138e-014
rhumerus -39.1375 10.3213 -89.4996
rradius 45.6965
rwrist -28.4198
rhand -27.42 -2.55807
rfingers 7.12502
rthumb -0.82577 -32.5362
lclavicle -3.62782e-015 1.0138e-014
lhumerus -39.0651 -10.2171 83.7043
lradius 59.0876
lwrist 26.9463
lhand -29.3145 21.662
lfingers 7.12502
lthumb -2.65548 51.6252
rfemur -7.45393 9.53016 21.7832
rtibia 31.5616
rfoot -3.59393 -21.1901
rtoes -30.7445
lfemur -6.37103 -6.76979 -20.2636
ltibia 32.6054
lfoot -6.07369 15.1912
ltoes -14.8442
108
root 8.08268 16.5595 0.893775 178.557 5.21506 -180.197
lowerback 8.68694 0.362903 0.641974
upperback 3.45516 0.787766 -1.19187
thorax -1.26885 0.522058 -1.66809
lowerneck -4.45891 7.20004 9.81767
upperneck 0.199583 9.24941 -6.9618
head 1.72528 4.57142 -3.70256
rclavicle 1.41137e-014 -2.28602e-014
rhumerus -39.3658 10.1036 -89.4753
rradius 44.7934
rwrist -28.1743
rhand -27.221 -2.65912
rfingers 7.12502
rthumb -0.633528 -32.6379
lclavicle 1.41137e-014 -2.28602e-014
lhumerus -39.6956 -9.17771 83.5734
lradius 58.9453
lwrist 26.5598
lhand -29.6248 20.7693
lfingers 7.12502
lthumb -2.95512 50.7286
rfemur -6.66079 10.0762 21.3369
rtibia 29.6538
rfoot -0.92458 -21.8365
rtoes -30.3553
lfemur -5.53973 -7.56063 -20.4468
ltibia 30.7317
lfoot -5.22158 16.6471
ltoes -13.1736
